<svg width="61" height="48" viewBox="0 0 61 48" fill="none" xmlns="http://www.w3.org/2000/svg">
<rect width="61" height="48" fill="black"/>
<path d="M29.2676 44.3125V33H31.2676V39.2344H31.4082L34.4551 35.8281H36.7832L33.502 39.4844L36.9863 44.3125H34.6113L32.002 40.6719L31.2676 41.4531V44.3125H29.2676Z" fill="white"/>
<path d="M24.2988 44.4844C21.8301 44.4844 20.2363 42.7344 20.2363 40.1094C20.2363 37.4688 21.8301 35.7188 24.2988 35.7188C26.7832 35.7188 28.3613 37.4688 28.3613 40.1094C28.3613 42.7344 26.7832 44.4844 24.2988 44.4844ZM24.3145 42.8906C25.6738 42.8906 26.3457 41.6562 26.3457 40.0938C26.3457 38.5469 25.6738 37.2969 24.3145 37.2969C22.9238 37.2969 22.252 38.5469 22.252 40.0938C22.252 41.6562 22.9238 42.8906 24.3145 42.8906Z" fill="white"/>
<path d="M15.625 44.4844C13.1562 44.4844 11.5625 42.7344 11.5625 40.1094C11.5625 37.4688 13.1562 35.7188 15.625 35.7188C18.1094 35.7188 19.6875 37.4688 19.6875 40.1094C19.6875 42.7344 18.1094 44.4844 15.625 44.4844ZM15.6406 42.8906C17 42.8906 17.6719 41.6562 17.6719 40.0938C17.6719 38.5469 17 37.2969 15.6406 37.2969C14.25 37.2969 13.5781 38.5469 13.5781 40.0938C13.5781 41.6562 14.25 42.8906 15.6406 42.8906Z" fill="white"/>
<path d="M4 44.3125V33H6.03125V42.5938H11.0312V44.3125H4Z" fill="white"/>
<path d="M54.0195 29.4844C51.457 29.4844 49.8945 27.7812 49.8945 25.125C49.8945 22.5 51.4883 20.7188 53.9102 20.7188C55.9883 20.7188 57.7852 22.0156 57.7852 25V25.625H51.8633C51.8867 27.0703 52.7383 27.9219 54.0352 27.9219C54.9102 27.9219 55.5039 27.5469 55.7539 27.0469H57.707C57.3477 28.5156 55.9883 29.4844 54.0195 29.4844ZM51.8789 24.2656H55.8789C55.8633 23.1094 55.0977 22.2656 53.9414 22.2656C52.7383 22.2656 51.9414 23.1797 51.8789 24.2656Z" fill="white"/>
<path d="M49.457 20.8281V22.3594H47.7852V26.7656C47.7852 27.5781 48.1914 27.75 48.6914 27.75C48.9258 27.75 49.3164 27.7344 49.5664 27.7188V29.3438C49.332 29.3906 48.9414 29.4219 48.4414 29.4219C46.9414 29.4219 45.7852 28.6875 45.8008 27.0938V22.3594H44.582V20.8281H45.8008V18.7969H47.7852V20.8281H49.457Z" fill="white"/>
<path d="M41.957 29.3125V20.8281H43.957V29.3125H41.957ZM42.9727 19.625C42.3477 19.625 41.8164 19.1406 41.8164 18.5312C41.8164 17.9375 42.3477 17.4531 42.9727 17.4531C43.6133 17.4531 44.1289 17.9375 44.1289 18.5312C44.1289 19.1406 43.6133 19.625 42.9727 19.625Z" fill="white"/>
<path d="M36.5645 29.3125V20.8281H38.502V22.2344H38.5957C38.8926 21.2656 39.7207 20.7031 40.6895 20.7031C40.9082 20.7031 41.2207 20.7188 41.4082 20.75V22.5938C41.2363 22.5312 40.8145 22.4688 40.4863 22.4688C39.377 22.4688 38.5645 23.2344 38.5645 24.3125V29.3125H36.5645Z" fill="white"/>
<path d="M31.5957 29.4844C29.127 29.4844 27.5332 27.7344 27.5332 25.1094C27.5332 22.4688 29.127 20.7188 31.5957 20.7188C34.0801 20.7188 35.6582 22.4688 35.6582 25.1094C35.6582 27.7344 34.0801 29.4844 31.5957 29.4844ZM31.6113 27.8906C32.9707 27.8906 33.6426 26.6562 33.6426 25.0938C33.6426 23.5469 32.9707 22.2969 31.6113 22.2969C30.2207 22.2969 29.5488 23.5469 29.5488 25.0938C29.5488 26.6562 30.2207 27.8906 31.6113 27.8906Z" fill="white"/>
<path d="M27.5801 20.8281L24.5488 29.3125H22.3613L19.3301 20.8281H21.4551L23.4082 27.1406H23.502L25.4707 20.8281H27.5801Z" fill="white"/>
<path d="M11.7656 26.9219C11.7656 25.0156 13.3438 24.4531 14.9219 24.3594C15.5078 24.3203 16.7266 24.25 17.0938 24.2344V23.5625C17.0938 22.7188 16.5469 22.2344 15.5625 22.2344C14.6719 22.2344 14.125 22.6406 13.9688 23.25H12.0469C12.1875 21.8125 13.4844 20.7188 15.6094 20.7188C17.2188 20.7188 19.0781 21.375 19.0781 23.6406V29.3125H17.1719V28.1406H17.1094C16.7344 28.8594 15.9375 29.4844 14.6094 29.4844C12.9844 29.4844 11.7656 28.5938 11.7656 26.9219ZM13.6875 26.9062C13.6875 27.6406 14.2812 28.0156 15.125 28.0156C16.3281 28.0156 17.1094 27.2188 17.1094 26.2656V25.5625L15.2344 25.6875C14.2812 25.7656 13.6875 26.1562 13.6875 26.9062Z" fill="white"/>
<path d="M4 29.3125V18H11.25V19.7031H6.03125V22.7969H10.75V24.5H6.03125V29.3125H4Z" fill="white"/>
<path d="M18.4219 17.5C18.0312 17.5 17.6406 17.4844 17.3906 17.4531V15.8594C17.6406 15.875 17.9688 15.8906 18.2344 15.8906C18.7188 15.8906 19.125 15.8438 19.4688 14.9375L19.6406 14.4844L16.5469 5.82812H18.6562L20.625 12.2344H20.7188L22.6875 5.82812H24.7969L21.3906 15.3438C20.9063 16.7031 20.0156 17.5 18.4219 17.5Z" fill="white"/>
<path d="M4 3H6.5L9.85938 11.2188H10L13.3594 3H15.8594V14.3125H13.9062V6.53125H13.7969L10.6562 14.2812H9.20312L6.0625 6.5H5.96875V14.3125H4V3Z" fill="white"/>
</svg>
